<svg xmlns="http://www.w3.org/2000/svg" viewBox="0 0 128 128" aria-label="Maple leaf icon tilted slightly right">
  <g transform="rotate(8 64 64)">
    <path fill="#000" d="
      M64 8
      C61 18 56 24 51 31
      C47 24 42 21 36 18
      C38 28 34 36 26 43
      C19 40 13 40 8 42
      C13 49 14 56 10 63
      C18 64 24 68 28 75
      C23 79 18 84 17 90
      C25 89 32 91 38 96
      C40 102 43 107 48 111
      C51 106 55 101 61 98
      L61 124
      L67 124
      L67 98
      C73 101 77 106 80 111
      C85 107 88 102 90 96
      C96 91 103 89 111 90
      C110 84 105 79 100 75
      C104 68 110 64 118 63
      C114 56 115 49 120 42
      C115 40 109 40 102 43
      C94 36 90 28 92 18
      C86 21 81 24 77 31
      C72 24 67 18 64 8
      Z"/>
  </g>
</svg>